<?xml version="1.0" encoding="utf-8" ?><svg xmlns="http://www.w3.org/2000/svg" xmlns:xlink="http://www.w3.org/1999/xlink" width="1536" height="1024" viewBox="0 0 1536 1024"><path fill="#FCF0D9" d="M0 0L1536 0L1536 1024L0 1024L0 0Z"/><path fill="#E57129" d="M388.528 324.555C421.728 304.381 458.851 301.042 496.329 311.975C501.806 313.572 506.82 315.917 512.116 317.976C529.558 312.458 548.943 312.614 565.04 321.94C587.252 334.807 609.837 359.054 617.961 383.715C625.947 407.959 609.297 421.774 586.364 422.186C586.367 426.345 586.472 430.957 586.248 435.072C600.103 444.204 617.619 455.573 620.789 473.02C624.501 493.447 617.037 511.039 599.307 521.634C590.105 525.717 583.83 526.968 573.654 525.118C570.061 528.279 567.205 530.809 563.292 533.625C581.004 545.255 591.72 563.397 586.175 585.42C580.863 606.513 557.763 609.61 539.055 606.999C540.83 610.741 542.167 613.477 543.462 617.4C550.608 635.444 556.785 662.814 537.795 675.404C512.119 692.427 468.731 692.33 439.459 688.033C399.258 682.133 355.451 664.484 330.594 631.058C298.033 586.167 331.529 561.207 337.568 519.138C340.111 501.42 334.507 474.757 337.387 455.793L337.59 451.306C331.224 453.31 326.492 454.668 319.753 455.703C299.752 458.774 275.769 448.492 270.766 427.427C267.784 414.871 273.445 400.496 279.299 389.468C293.942 361.738 316.1 335.964 347.126 326.586C360.528 322.392 374.78 321.692 388.528 324.555Z"/><path fill="#8B3200" d="M572.195 500.213C562.861 496.914 547.309 489.787 543.364 481.537C532.595 458.882 577.707 451.249 591.612 456.889C618.049 467.613 599.493 491.1 581.618 499.724C584.418 513.64 587.485 514.809 599.307 521.634C590.105 525.717 583.83 526.968 573.654 525.118C570.061 528.279 567.205 530.809 563.292 533.625C581.004 545.255 591.72 563.397 586.175 585.42C580.863 606.513 557.763 609.61 539.055 606.999C540.83 610.741 542.167 613.477 543.462 617.4L542.355 617.67C533.578 615.038 514.48 599.929 509.93 599.285C472.547 593.998 433.57 582.073 406.405 554.459C404.732 552.758 402.622 549.156 402.864 546.412L403.806 545.762C409.443 545.87 419.116 553.971 426.071 556.898C438.945 563.599 460.393 561.413 472.072 567.32C486.502 574.619 493.123 581.451 509.538 586.903C505.568 579.501 498.377 565.208 493.117 559.296C481.173 545.819 465.467 533.544 456.075 518.059C451.97 511.291 442.13 490.223 452.518 484.978C462.861 479.633 464.383 488.974 469.454 495.211C489.594 519.982 528.07 531.553 557.764 518.667C565.654 515.243 569.713 508.176 572.195 500.213Z"/><path fill="#E57129" d="M498.098 537.761C505.609 537.831 522.059 539.79 530.039 540.459C535.883 545.788 543.412 553.912 548.027 560.483C550.853 564.507 553.348 577.117 557.25 578.915L557.923 577.591C557.671 574.233 550.362 554.51 549.444 549.331C549.294 548.481 545.489 542.193 544.713 540.927L554.493 540.139C564.711 545.677 568.631 548.282 575.872 557.717C595.392 585.369 573.795 608.065 544.511 598.381C520.901 590.574 507.718 559.174 498.098 537.761Z"/><path fill="#8B3200" d="M337.59 451.306C359.824 443.88 373.096 430.991 384.125 410.414C392.601 394.6 392.141 381.982 396.622 366.639C403.797 367.885 402.262 389.485 401.15 394.779C393.738 430.096 372.687 455.575 337.361 465.692C337.377 462.576 337.497 458.852 337.387 455.793L337.59 451.306Z"/><path fill="#8B3200" d="M468.484 396.894C489.671 395.888 496.013 435.087 471.804 439.985C447.884 439.169 444.51 405.106 468.484 396.894Z"/><path fill="#8B3200" d="M546.722 392.316C566.67 391.178 572.314 418.696 555.397 428.299C535.507 432.351 529.754 403.918 546.722 392.316Z"/><path fill="#8B3200" d="M533.764 330.536C540.265 332.641 546.548 338.165 551.098 343.12C574.251 367.953 586.65 400.934 585.593 434.874L576.837 431.218C576.335 387.929 561.001 361.599 533.764 330.536Z"/><path fill="#008178" d="M713.455 526.111C728.333 525.959 744.046 526.371 758.759 526.249C803.141 525.882 836.316 552.457 833.913 599.145C832.905 618.74 826.169 632.988 811.527 646.338C783.802 668.153 743.593 663.339 709.243 663.232C708.717 654.736 709.069 642.209 709.068 633.372L709.046 576.541C709.012 562.009 708.733 544.5 709.175 529.727C709.228 527.963 711.822 527.005 713.455 526.111Z"/><path fill="#FCF0D9" d="M742.421 553.633C758.002 553.51 773.84 551.781 786.428 562.594C804.633 578.232 804.095 607.407 789.115 624.898C774.874 638.721 761.376 636.281 742.43 636.136L742.421 553.633Z"/><path fill="#008178" d="M999.2 557.484L999.672 557.432C1016.3 555.75 1025.83 558.663 1038.45 568.982C1039.2 564.652 1039.57 560.909 1044.19 559.068C1050.94 556.379 1059.57 557.329 1066.09 560.138C1067.77 563.58 1067.39 652.185 1066.85 661.818C1064.26 707.936 1003.43 710.914 970.268 694.391L971.75 683.723C972.253 679.401 972.639 672.189 974.744 668.738C978.201 667.069 988.988 674.523 994.851 676.635C999.548 678.371 1004.51 679.272 1009.52 679.296C1031.6 679.568 1035.9 666.411 1035.88 647.183C1031.08 653.653 1026.21 658.592 1018.05 660.617C997.469 665.917 972.867 655.362 965.203 634.754C953.385 602.976 963.746 566.048 999.2 557.484Z"/><path fill="#FCF0D9" d="M1011.66 583.028C1036.85 581.744 1040.95 609.845 1031.85 628.287C1029.42 633.201 1024.3 635.105 1019.18 636.199C993.024 636.787 987.061 613.393 997.352 592.073C999.928 586.738 1006.06 584.213 1011.66 583.028Z"/><path fill="#008178" d="M877.922 389.608C892.057 388.835 902.083 394.628 909.877 406.028C911.055 404.651 912.278 403.312 913.543 402.015C935.1 380.019 973.342 388.262 980.162 419.305C982.686 430.795 981.905 443.781 981.891 455.583C981.904 469.835 981.84 484.087 981.698 498.338C974.81 499.251 957.304 498.835 950.2 498.404C949.476 476.056 951.25 452.827 949.39 430.809C948.045 414.882 918.077 413.316 916.848 432.184C915.691 449.947 916.367 469.028 916.457 486.681L916.45 498.3C906.519 499.032 894.627 498.657 884.64 498.344C884.152 484.193 884.973 469.868 884.656 455.845C884.369 443.128 888.284 419.694 870.238 418.727C855.332 417.927 851.383 425.819 851.226 439.094C850.991 458.886 851.2 478.552 851.38 498.298C846.15 498.462 823.661 499.942 820.162 497.192C818.796 490.616 819.264 469.381 819.263 461.317C819.168 438.598 819.261 415.88 819.542 393.163C828.008 392.435 839.985 392.651 848.524 393.105C848.862 397.911 848.526 401.45 848.176 406.211C857.804 396.304 864.108 390.88 877.922 389.608Z"/><path fill="#008178" d="M892.526 556.661C922.588 553.755 949.335 575.724 952.333 605.784C955.332 635.844 933.453 662.666 903.409 665.759C873.233 668.866 846.274 646.863 843.262 616.67C840.25 586.477 862.331 559.58 892.526 556.661Z"/><path fill="#FCF0D9" d="M892.645 583.051C896.163 582.625 902.602 582.207 905.64 583.869C926.448 595.253 924.555 630.405 902.337 639.448C898.809 640.205 894.136 639.693 890.788 638.522C871.938 631.924 872.14 598.797 885.482 587.133C887.477 585.389 890.246 584.129 892.645 583.051Z"/><path fill="#008178" d="M755.141 353.642C770.477 352.197 784.975 355.782 798.852 361.969C798.713 367.393 797.804 387.526 794.833 391.344C793.04 391.112 788.57 389.099 786.564 388.038C777.006 382.979 754.24 377.379 745.702 386.324C738.515 393.853 743.185 404.698 752.707 408.382C760.252 411.301 769.021 413.76 776.802 416.457C799.3 423.58 809.918 443.682 804.403 466.578C798.485 491.146 775.949 500.489 753.097 501.115C737.117 501.302 722.203 498.679 707.72 491.844C708.074 486.765 710.29 466.103 713.01 463.124C715.523 463.52 720.075 465.131 722.57 466.449C732.096 471.482 759.458 477.941 767.208 467.628C781.877 447.865 752.782 441.844 738.766 437.407C707.663 427.561 698.066 396.657 717.304 370.558C725.736 359.118 740.83 354.933 755.141 353.642Z"/><path fill="#008178" d="M1035.72 390.305C1060.54 387.737 1084.73 393.09 1090.83 420.807C1092.97 430.544 1092.13 443.437 1092.11 453.606L1091.97 498.762C1084.57 498.816 1071.69 500.548 1065.52 497.499C1062.85 496.176 1062.39 492.909 1061.71 490.07C1044.88 503.322 1022.64 505.402 1005.68 491.178C1000.87 486.072 997.955 479.467 997.433 472.471C994.509 436.146 1035.8 435.807 1061.35 434.035C1058.37 410.689 1040.26 415.738 1022.89 420.719C1018.72 421.918 1009.06 428.456 1005.75 425.954C1003.59 420.755 1004.65 408.195 1004.88 402.251C1014.27 395.866 1024.64 392.349 1035.72 390.305Z"/><path fill="#FCF0D9" d="M1052.79 454.131C1054.15 453.884 1059.48 453.634 1061.15 453.514C1060.64 473.968 1059.67 478.075 1038.17 477.976C1034.87 477.079 1027.97 473.18 1028.24 469.572C1029.12 457.911 1045.03 455.095 1052.79 454.131Z"/><path fill="#008178" d="M1112.15 557.593C1125.83 556.13 1141.37 557.864 1153.55 564.428C1153.38 570.148 1153.54 584.171 1151.17 588.496C1148.58 588.459 1132.74 579.433 1125.59 580.835C1123.65 581.215 1117.98 579.973 1114.83 583.424C1113.35 585.043 1112.36 588.391 1112.73 589.906C1115.64 601.908 1139.3 596.554 1150.03 607.837C1156.94 615.106 1160.62 619.528 1161.16 629.247C1161.64 637.512 1158.79 645.624 1153.25 651.774C1144.47 661.606 1133.65 664.409 1121.12 665.11C1106.56 665.368 1095.55 662.783 1082.02 657.9C1082.16 651.749 1082.02 638.523 1084.02 633.097C1084.42 632.783 1084.82 632.469 1085.22 632.155C1097.41 635.735 1107.64 643.916 1121.28 642.05C1126.47 641.34 1130.97 635.036 1129.69 630.532C1127.7 623.457 1112.83 623.698 1106.91 621.331C1102.58 619.598 1098.41 618.755 1094.48 615.873C1079.98 607.23 1076.79 586.029 1086.21 572.465C1092.65 563.186 1101.21 559.617 1112.15 557.593Z"/><path fill="#008178" d="M1232.01 366.382C1233.28 366.041 1233.62 366.264 1234.94 366.521C1237.01 369.854 1236.07 387.841 1236.02 392.842C1244.66 392.682 1253.3 392.647 1261.93 392.737C1263.03 421.31 1265.27 418.233 1236.58 417.905C1236.63 431.747 1236.19 445.693 1236.58 459.535C1237.17 480.553 1250.27 471.466 1260.68 473.386C1263.14 476.403 1262.39 490.012 1262.38 494.685C1257.51 498.166 1253.01 499.006 1247.3 500.278C1235.58 501.787 1221.65 499.858 1212.89 491.213C1202.74 481.201 1204.54 466.012 1204.46 452.968C1204.38 441.295 1204.51 429.56 1204.55 417.877C1198.47 418.051 1193.8 419.132 1189.09 415.61C1186.22 411.294 1188.1 398.924 1188.38 392.737C1193.36 392.588 1199.64 392.827 1204.73 392.895L1204.53 370.107C1211.59 368.674 1224.39 367.391 1232.01 366.382Z"/><path fill="#008178" d="M1167.33 389.582C1186.41 389.396 1182.12 398.559 1179.99 413.006C1179.47 416.559 1178.81 420.207 1178.25 423.756C1143.89 417.418 1140.2 436.42 1141.47 465.833C1141.92 476.055 1141.56 488.319 1141.52 498.754C1132.26 499.073 1122.16 498.813 1112.85 498.751L1110.91 497.32C1109.12 493.142 1109.91 403.78 1109.85 393.059C1119.37 392.815 1128.89 392.833 1138.41 393.112C1138.9 396.948 1138.93 403.253 1139.08 407.285C1139.4 406.846 1139.73 406.412 1140.06 405.983C1147.65 396.207 1155.13 391.166 1167.33 389.582Z"/></svg>