<?xml version="1.0" encoding="utf-8" ?><svg xmlns="http://www.w3.org/2000/svg" xmlns:xlink="http://www.w3.org/1999/xlink" width="1033" height="1033" viewBox="0 0 1033 1033"><clipPath id="cl_3"><rect x="-0.00012207031" y="-6.1035156e-05" width="1033" height="1033"/></clipPath><g clip-path="url(#cl_3)"><path fill="#E5732B" transform="matrix(1.00879 0 0 1.00879 -258.25 -6.10352e-05)" d="M388.25 324.436C393.705 321.475 399.295 318.77 405.003 316.329C441.649 300.868 475.49 303.234 511.576 317.863C512.983 317.511 514.396 317.187 515.816 316.893C535.832 312.617 552.121 313.076 569.95 325.119C591.126 339.823 613.572 363.112 619.255 389.017C624.593 413.345 604.573 419.014 586.024 422.815C586.383 427.201 586.495 430.445 586.473 434.847C601.334 446.374 618.85 455.709 621.326 476.044C623.71 495.619 615.359 511.23 598.992 521.717C589.38 526.361 584.901 526.053 574.337 525.922C570.04 528.257 567.465 530.587 563.747 533.684C576.354 543.103 585.257 552.962 587.628 568.97C590.826 590.563 577.519 605.531 556.316 607.533C550.614 608.071 545.599 607.684 539.906 607.509L543.856 618.093C569.202 677.827 519.297 690.29 472.093 690.126C426.291 689.966 375.04 676.568 341.799 643.585C333.708 635.605 327.043 626.298 322.093 616.067C305.828 581.84 330.486 556.862 336.726 524.204C340.02 506.96 336.725 484.036 336.647 465.61C336.765 460.999 337.115 456.151 337.374 451.526C300.429 464.457 257.493 446.279 273.816 401.4C281.553 380.129 297.429 358.94 314.659 344.357C337.13 325.338 359.636 321.494 388.25 324.436Z"/><path fill="#8E3500" transform="matrix(1.00879 0 0 1.00879 -258.25 -6.10352e-05)" d="M572.049 500.165C558.84 495.329 529.22 481.512 547.409 464.678C558.671 454.255 590.796 450.142 601.715 463.671C613.011 477.669 591.781 493.004 581.349 499.912C585.097 513.186 587.525 514.892 598.992 521.717C589.38 526.361 584.901 526.053 574.337 525.922C570.04 528.257 567.465 530.587 563.747 533.684C576.354 543.103 585.257 552.962 587.628 568.97C590.826 590.563 577.519 605.531 556.316 607.533C550.614 608.071 545.599 607.684 539.906 607.509L543.856 618.093C530.695 613.62 524.469 605.801 512.41 600.607C505.975 597.835 494.367 597.137 486.363 595.243C457.649 588.446 429.144 576.804 407.707 555.919C405.804 554.064 403.1 549.656 403.281 546.917C407.021 545.517 415.772 550.871 418.956 553.139C434.02 563.869 454.649 559.909 470.586 566.824C484.902 573.037 493.868 581.437 509.441 586.853C504.962 578.194 498.976 566.377 492.628 559.063C472.72 536.13 454.905 526.894 447.322 495.415C447.58 494.346 447.865 493.283 448.174 492.227C449.572 487.535 454.004 480.511 459.914 484.054C464.21 486.631 468.817 493.931 472.246 497.997C491.749 521.127 529.686 530.835 557.439 518.614C565.387 515.1 569.318 508.219 572.049 500.165Z"/><path fill="#E5732B" transform="matrix(1.00879 0 0 1.00879 -258.25 -6.10352e-05)" d="M497.906 537.828C508.07 537.971 519.711 539.346 529.932 540.349C540.099 550.114 548.104 558.582 552.849 572.054C553.545 574.03 554.866 576.584 556.838 577.478L557.349 576.414C556.284 567.374 548.871 549.574 544.965 541.023L554.599 540.067C565.184 546.135 568.302 548.56 575.786 557.732C576.739 559.199 577.624 560.708 578.441 562.254C593.158 590.47 570.068 606.794 543.881 598.009C520.001 589.999 507.82 558.566 497.906 537.828Z"/><path fill="#8E3500" transform="matrix(1.00879 0 0 1.00879 -258.25 -6.10352e-05)" d="M337.374 451.526C376.711 433.996 388.68 411.35 395.348 371.029C395.614 369.417 396.502 368.295 397.858 367.479C400.344 369.473 401.492 372.457 401.692 375.575C404.385 417.562 376.832 455.144 336.647 465.61C336.765 460.999 337.115 456.151 337.374 451.526Z"/><path fill="#8E3500" transform="matrix(1.00879 0 0 1.00879 -258.25 -6.10352e-05)" d="M532.822 329.355C533.557 329.765 534.283 330.193 534.998 330.638C560.068 345.978 573.632 371.187 581.588 399.035C583.603 406.087 584.141 414.963 586.024 422.815C586.383 427.201 586.495 430.445 586.473 434.847C583.444 433.932 579.78 432.489 576.746 431.383C577.324 386.905 559.737 362.25 532.822 329.355Z"/><path fill="#8E3500" transform="matrix(1.00879 0 0 1.00879 -258.25 -6.10352e-05)" d="M467.995 396.75C488.792 396.932 496.268 427.41 473.043 440.049C471.732 439.947 470.429 439.748 469.147 439.453C453.139 435.898 447.368 421.051 456.179 407.121C459.399 402.031 462.911 399.886 467.995 396.75Z"/><path fill="#8E3500" transform="matrix(1.00879 0 0 1.00879 -258.25 -6.10352e-05)" d="M546.296 392.208C569.041 392.133 569.295 413.776 556.025 428.31L555.54 428.33C531.491 429.239 532.964 405.645 546.296 392.208Z"/></g></svg>